# xmcd
#
# Track frame offsets:
#  150
#  12884
#  23779
#  36527
#  46669
#  59521
#  70612
#  84731
#  96364
#  108603
#  122675
#
# Disc length: 1776 seconds
#
# Revision: 0
# Processed by: cddbd v1.5.1PL0 Copyright (c) Steve Scherf et al.
# Submitted via: Collectorz.com Music Collector 6.9
#
DISCID=9006ee0b
DTITLE=Various Artist - Tumbling Tumbleweeds  (Record 3 of 7)
DYEAR=1900
DGENRE=Country
TTITLE0=Bing Crosby and Guy Lombardo - Sioux City Sue
TTITLE1=Sons Of The Pioneers - (Ghost) Riders in The Sky
TTITLE2=Al Dexter - Pistol Packin' Mama
TTITLE3=The Sons Of The Pioneers - Don't Fence Me In
TTITLE4=Jimmy Wakely - Take Me Back To My Boots And Saddle
TTITLE5=The Sons Of The Pioneers - Ragtime Cowboy Joe
TTITLE6=Ford, Tennessee Ernie - Mule Train
TTITLE7=The Sons Of The Pioneers - Be Honest With Me
TTITLE8=Crosby, Bing - I'm An Old Cowhand
TTITLE9=The Sons Of The Pioneers - When It's Springtime In The Rockies
TTITLE10=Whitman, Slim - Rinestone Cowboy
EXTD=
EXTT0=
EXTT1=
EXTT2=
EXTT3=
EXTT4=
EXTT5=
EXTT6=
EXTT7=
EXTT8=
EXTT9=
EXTT10=
PLAYORDER=
